<svg xmlns="http://www.w3.org/2000/svg" xmlns:xlink="http://www.w3.org/1999/xlink" version="1.1" width="1000" height="1000" viewBox="0 0 1000 1000" xml:space="preserve">
<desc>Created with Fabric.js 3.5.0</desc>
<defs>
</defs>
<rect x="0" y="0" width="100%" height="100%" fill="#ffffff"/>
<g transform="matrix(1 0 0 1 500 447.602)" style="" id="383217">
		
<path xml:space="preserve" font-family="Abril Fatface" font-size="78" font-weight="normal" style="stroke: none; stroke-width: 0; stroke-dasharray: none; stroke-linecap: butt; stroke-dashoffset: 0; stroke-linejoin: miter; stroke-miterlimit: 4; is-custom-font: none; font-file-url: https://cdn.pixelied.com/user-assets/fonts/f9dcbca2-3c70-47b6-a73e-64672bf11c84.otf; fill: rgb(75,76,230); fill-rule: nonzero; opacity: 1; white-space: pre;" d="M-426.19 23.02L-420.65 23.02L-426.35 6.17L-441.79 6.17L-447.80 23.02L-441.95 23.02L-441.95 24.50L-453.88 24.50L-453.88 23.02L-450.22 23.02L-430.33-30.57L-423.93-30.57L-404.27 23.02L-400.69 23.02L-400.69 24.50L-426.19 24.50L-426.19 23.02ZM-426.97 4.46L-433.76-15.98L-441.09 4.46L-426.97 4.46ZM-375.65 23.64L-375.65 23.64Q-371.75 23.64-368.75 21.54Q-365.74 19.43-365.74 15.18Q-365.74 10.93-368.98 8.67Q-372.22 6.41-378.18 4.73Q-384.15 3.05-386.84 1.80Q-389.53 0.56-391.95-1.47L-391.95-1.47Q-396.79-5.53-396.79-14.03L-396.79-14.03Q-396.79-20.97-391.83-25.96Q-386.88-30.96-378.30-30.96L-378.30-30.96Q-374.17-30.96-369.68-29.75Q-365.20-28.54-364.10-28.54Q-363.01-28.54-362.15-30.10L-362.15-30.10L-361.30-30.10L-360.75-14.34L-362.00-14.34Q-365.74-21.13-369.84-25.22Q-373.93-29.32-378.73-29.32Q-383.53-29.32-386.18-27.09Q-388.83-24.87-388.83-21.17Q-388.83-17.46-385.67-15.47Q-382.51-13.48-377.91-12.24Q-373.31-10.99-371.87-10.52Q-370.42-10.05-368.28-9.23Q-366.13-8.41-364.77-7.52Q-363.40-6.62-361.88-5.25Q-360.36-3.89-359.50-2.25L-359.50-2.25Q-357.40 1.49-357.40 6.64L-357.40 6.64Q-357.40 15.06-362.66 20.17Q-367.93 25.28-376.51 25.28L-376.51 25.28Q-380.95 25.28-386.69 24.11Q-392.42 22.94-393.04 22.94L-393.04 22.94Q-394.13 22.94-395.15 25.28L-395.15 25.28L-396.24 25.28L-397.02 6.72L-395.69 6.72Q-392.26 13.50-386.92 18.57Q-381.58 23.64-375.65 23.64ZM-354.12-30.10L-308.10-30.10L-307.32-10.52L-308.80-10.52Q-312.23-20.89-314.89-24.68Q-317.54-28.46-322.53-28.46L-322.53-28.46L-323.47-28.46L-323.47 22.86L-316.84 22.86L-316.84 24.50L-345.31 24.50L-345.31 22.86L-338.68 22.86L-338.68-28.46L-339.69-28.46Q-344.68-28.46-347.41-24.52Q-350.14-20.58-353.42-10.52L-353.42-10.52L-354.90-10.52L-354.12-30.10ZM-278.85-3.11L-278.85-3.11L-282.98-3.11L-282.98 23.02L-277.91 23.02L-277.91 24.50L-303.26 24.50L-303.26 23.02L-298.19 23.02L-298.19-28.62L-303.26-28.62L-303.26-30.10L-279.71-30.10Q-269.57-30.10-265.32-29.04Q-261.07-27.99-259.35-26.51L-259.35-26.51Q-255.61-23.47-255.61-16.84Q-255.61-10.21-258.88-7.36Q-262.16-4.51-268.87-3.97L-268.87-3.97L-268.87-3.73Q-262.55-2.88-260.05 0.01Q-257.56 2.90-257.56 9.68L-257.56 9.68L-257.56 13.82Q-257.56 17.87-257.13 19.28Q-256.70 20.68-255.29 20.68Q-253.89 20.68-253.07 19.39Q-252.25 18.11-251.55 13.97L-251.55 13.97L-250.22 14.13Q-251.08 20.76-253.23 23.02Q-255.37 25.28-261.77 25.28Q-268.16 25.28-270.85 22.28Q-273.55 19.28-273.55 11.01L-273.55 11.01L-273.55 5.31Q-273.55 0.95-274.68-1.08Q-275.81-3.11-278.85-3.11ZM-280.41-28.62L-282.98-28.62L-282.98-4.59L-280.49-4.59Q-276.04-4.59-273.90-7.32Q-271.75-10.05-271.75-16.21L-271.75-16.21L-271.75-18.48Q-271.75-24.64-273.82-26.63Q-275.89-28.62-280.41-28.62L-280.41-28.62ZM-221.21 23.02L-215.67 23.02L-221.36 6.17L-236.81 6.17L-242.81 23.02L-236.96 23.02L-236.96 24.50L-248.90 24.50L-248.90 23.02L-245.23 23.02L-225.34-30.57L-218.95-30.57L-199.29 23.02L-195.70 23.02L-195.70 24.50L-221.21 24.50L-221.21 23.02ZM-221.99 4.46L-228.77-15.98L-236.11 4.46L-221.99 4.46ZM-170.66 23.64L-170.66 23.64Q-166.76 23.64-163.76 21.54Q-160.76 19.43-160.76 15.18Q-160.76 10.93-163.99 8.67Q-167.23 6.41-173.20 4.73Q-179.17 3.05-181.86 1.80Q-184.55 0.56-186.97-1.47L-186.97-1.47Q-191.80-5.53-191.80-14.03L-191.80-14.03Q-191.80-20.97-186.85-25.96Q-181.90-30.96-173.32-30.96L-173.32-30.96Q-169.18-30.96-164.70-29.75Q-160.21-28.54-159.12-28.54Q-158.03-28.54-157.17-30.10L-157.17-30.10L-156.31-30.10L-155.77-14.34L-157.01-14.34Q-160.76-21.13-164.85-25.22Q-168.95-29.32-173.74-29.32Q-178.54-29.32-181.19-27.09Q-183.85-24.87-183.85-21.17Q-183.85-17.46-180.69-15.47Q-177.53-13.48-172.93-12.24Q-168.32-10.99-166.88-10.52Q-165.44-10.05-163.29-9.23Q-161.15-8.41-159.78-7.52Q-158.42-6.62-156.90-5.25Q-155.38-3.89-154.52-2.25L-154.52-2.25Q-152.41 1.49-152.41 6.64L-152.41 6.64Q-152.41 15.06-157.68 20.17Q-162.94 25.28-171.52 25.28L-171.52 25.28Q-175.97 25.28-181.70 24.11Q-187.43 22.94-188.06 22.94L-188.06 22.94Q-189.15 22.94-190.16 25.28L-190.16 25.28L-191.26 25.28L-192.04 6.72L-190.71 6.72Q-187.28 13.50-181.93 18.57Q-176.59 23.64-170.66 23.64ZM-149.14-30.10L-103.12-30.10L-102.34-10.52L-103.82-10.52Q-107.25-20.89-109.90-24.68Q-112.55-28.46-117.55-28.46L-117.55-28.46L-118.48-28.46L-118.48 22.86L-111.85 22.86L-111.85 24.50L-140.32 24.50L-140.32 22.86L-133.69 22.86L-133.69-28.46L-134.71-28.46Q-139.70-28.46-142.43-24.52Q-145.16-20.58-148.43-10.52L-148.43-10.52L-149.92-10.52L-149.14-30.10ZM-73.87-3.11L-73.87-3.11L-78.00-3.11L-78.00 23.02L-72.93 23.02L-72.93 24.50L-98.28 24.50L-98.28 23.02L-93.21 23.02L-93.21-28.62L-98.28-28.62L-98.28-30.10L-74.72-30.10Q-64.58-30.10-60.33-29.04Q-56.08-27.99-54.37-26.51L-54.37-26.51Q-50.62-23.47-50.62-16.84Q-50.62-10.21-53.90-7.36Q-57.17-4.51-63.88-3.97L-63.88-3.97L-63.88-3.73Q-57.56-2.88-55.07 0.01Q-52.57 2.90-52.57 9.68L-52.57 9.68L-52.57 13.82Q-52.57 17.87-52.14 19.28Q-51.71 20.68-50.31 20.68Q-48.91 20.68-48.09 19.39Q-47.27 18.11-46.57 13.97L-46.57 13.97L-45.24 14.13Q-46.10 20.76-48.24 23.02Q-50.39 25.28-56.78 25.28Q-63.18 25.28-65.87 22.28Q-68.56 19.28-68.56 11.01L-68.56 11.01L-68.56 5.31Q-68.56 0.95-69.69-1.08Q-70.82-3.11-73.87-3.11ZM-75.43-28.62L-78.00-28.62L-78.00-4.59L-75.50-4.59Q-71.06-4.59-68.91-7.32Q-66.77-10.05-66.77-16.21L-66.77-16.21L-66.77-18.48Q-66.77-24.64-68.83-26.63Q-70.90-28.62-75.43-28.62L-75.43-28.62ZM-41.96-28.38L-41.96-30.10L-1.40-30.10L-0.62-14.65L-2.03-14.65Q-5.30-22.53-8.89-25.46Q-12.48-28.38-19.42-28.38L-19.42-28.38L-22.15-28.38L-22.15-4.28L-19.50-4.28Q-15.83-4.28-13.34-7.05Q-10.84-9.82-9.83-14.50L-9.83-14.50L-8.66-14.50L-8.66 8.59L-9.98 8.59Q-11.39 2.74-13.77 0.24Q-16.15-2.25-20.28-2.25L-20.28-2.25L-22.15-2.25L-22.15 22.79L-19.19 22.79Q-12.01 22.79-6.98 18.50Q-1.95 14.21-0.08 7.50L-0.08 7.50L1.48 7.50L0.86 24.50L-41.96 24.50L-41.96 22.79L-37.36 22.79L-37.36-28.38L-41.96-28.38ZM32.45 23.02L37.99 23.02L32.29 6.17L16.85 6.17L10.84 23.02L16.69 23.02L16.69 24.50L4.76 24.50L4.76 23.02L8.42 23.02L28.31-30.57L34.71-30.57L54.37 23.02L57.95 23.02L57.95 24.50L32.45 24.50L32.45 23.02ZM31.67 4.46L24.88-15.98L17.55 4.46L31.67 4.46ZM91.81 10.07L101.17-30.10L121.99-30.10L121.99-28.62L117.70-28.62L117.70 23.02L121.99 23.02L121.99 24.50L98.20 24.50L98.20 23.02L102.49 23.02L102.49-25.73L102.18-25.73L90.48 24.50L80.73 24.50L67.00-25.96L66.69-25.96L66.69 23.02L70.98 23.02L70.98 24.50L60.37 24.50L60.37 23.02L64.66 23.02L64.66-28.62L60.37-28.62L60.37-30.10L81.43-30.10L91.81 10.07ZM193.67-3.73L193.67-3.73Q193.67 12.33 184.63 18.65L184.63 18.65Q176.28 24.50 161.69 24.50L161.69 24.50L139.62 24.50L139.62 23.02L144.77 23.02L144.77-28.62L139.62-28.62L139.62-30.10L163.72-30.10Q178.70-30.10 186.19-23.97Q193.67-17.85 193.67-3.73ZM159.98-28.62L159.98 23.02L162.94 23.02Q170.82 23.02 174.21 17.44Q177.61 11.87 177.61-1.24L177.61-1.24L177.61-5.76Q177.61-23.31 170.90-26.90L170.90-26.90Q167.70-28.62 161.85-28.62L161.85-28.62L159.98-28.62ZM198.82-28.62L198.82-30.10L222.61-30.10L222.61-28.62L218.32-28.62L218.32 23.02L222.61 23.02L222.61 24.50L198.82 24.50L198.82 23.02L203.11 23.02L203.11-28.62L198.82-28.62ZM254.98 23.72L254.98 23.72Q258.80 23.72 259.86 22.32Q260.91 20.91 260.91 17.56L260.91 17.56L260.91 2.43L255.92 2.43L255.92 0.71L278.38 0.71L278.38 2.43L275.34 2.43L275.34 24.42L274.17 24.42Q272.77 22.47 270.19 22.47L270.19 22.47Q269.10 22.47 263.68 23.88Q258.26 25.28 254.44 25.28L254.44 25.28Q241.72 25.28 234.74 18.42Q227.76 11.55 227.76-2.21Q227.76-15.98 235.05-23.47Q242.35-30.96 254.67-30.96L254.67-30.96Q259.43-30.96 264.23-29.75Q269.02-28.54 269.80-28.54Q270.58-28.54 270.97-28.89Q271.36-29.24 271.83-30.10L271.83-30.10L272.69-30.10L273.31-13.17L271.91-13.17Q268.09-20.74 264.23-25.07Q260.36-29.40 255.61-29.40L255.61-29.40Q243.67-29.40 243.67-6.07L243.67-6.07L243.67 0.09Q243.67 11.79 246.60 17.76Q249.52 23.72 254.98 23.72ZM282.91-28.62L282.91-30.10L306.70-30.10L306.70-28.62L302.41-28.62L302.41 23.02L306.70 23.02L306.70 24.50L282.91 24.50L282.91 23.02L287.20 23.02L287.20-28.62L282.91-28.62ZM312.23-30.10L358.25-30.10L359.03-10.52L357.55-10.52Q354.12-20.89 351.47-24.68Q348.82-28.46 343.82-28.46L343.82-28.46L342.89-28.46L342.89 22.86L349.52 22.86L349.52 24.50L321.05 24.50L321.05 22.86L327.68 22.86L327.68-28.46L326.66-28.46Q321.67-28.46 318.94-24.52Q316.21-20.58 312.94-10.52L312.94-10.52L311.45-10.52L312.23-30.10ZM381.89 23.02L387.43 23.02L381.73 6.17L366.29 6.17L360.28 23.02L366.13 23.02L366.13 24.50L354.20 24.50L354.20 23.02L357.86 23.02L377.75-30.57L384.15-30.57L403.81 23.02L407.39 23.02L407.39 24.50L381.89 24.50L381.89 23.02ZM381.11 4.46L374.32-15.98L366.99 4.46L381.11 4.46ZM409.50-28.38L409.50-30.10L437.58-30.10L437.58-28.38L429.31-28.38L429.31 22.79L432.12 22.79Q438.75 22.79 442.69 18.73Q446.63 14.67 450.68 6.25L450.68 6.25L452.32 6.25L450.84 24.50L409.50 24.50L409.50 22.79L414.10 22.79L414.10-28.38L409.50-28.38Z"/></g>
</svg>